<svg id="Ebene_1" data-name="Ebene 1" xmlns="http://www.w3.org/2000/svg" width="1920" height="1080" viewBox="0 0 1920 1080">
  <title>introanim</title>
  <circle cx="656.87" cy="351.28" r="88.86" fill="#fadd02"/>
  <circle cx="1070.99" cy="316.86" r="88.86" fill="#fadd02"/>
  <circle cx="1453.83" cy="739.86" r="88.86" fill="#fadd02"/>
  <circle cx="884.4" cy="650.86" r="88.86" fill="#fadd02"/>
  <circle cx="1196.58" cy="912.14" r="88.86" fill="#fadd02"/>
  <circle cx="1545.62" cy="240.86" r="88.86" fill="#fadd02"/>
  <circle cx="412.79" cy="893.15" r="88.86" fill="#fadd02"/>
  <circle cx="187.17" cy="530.27" r="88.86" fill="#fadd02"/>
  <path d="M1265,335a47,47,0,1,1-47,47,47,47,0,0,1,47-47m0-8a55,55,0,1,0,55,55,55,55,0,0,0-55-55Z" fill="#fadd02"/>
  <path d="M255,339a47,47,0,1,1-47,47,47,47,0,0,1,47-47m0-8a55,55,0,1,0,55,55,55,55,0,0,0-55-55Z" fill="#fadd02"/>
  <path d="M635,123a47,47,0,1,1-47,47,47,47,0,0,1,47-47m0-8a55,55,0,1,0,55,55,55,55,0,0,0-55-55Z" fill="#fadd02"/>
  <path d="M693,769a47,47,0,1,1-47,47,47,47,0,0,1,47-47m0-8a55,55,0,1,0,55,55,55,55,0,0,0-55-55Z" fill="#fadd02"/>
  <path d="M1281,730a47,47,0,1,1-47,47,47,47,0,0,1,47-47m0-8a55,55,0,1,0,55,55,55,55,0,0,0-55-55Z" fill="#fadd02"/>
  <rect x="944" y="375" width="209.52" height="83" fill="none" stroke="#6102fa" stroke-miterlimit="10" stroke-width="8"/>
  <rect x="325" y="678" width="209.52" height="83" fill="none" stroke="#6102fa" stroke-miterlimit="10" stroke-width="8"/>
  <rect x="925" y="692" width="209.52" height="83" fill="none" stroke="#6102fa" stroke-miterlimit="10" stroke-width="8"/>
  <rect x="289" y="218" width="209.52" height="83" fill="none" stroke="#6102fa" stroke-miterlimit="10" stroke-width="8"/>
  <rect x="1439" y="772" width="209.52" height="83" fill="none" stroke="#6102fa" stroke-miterlimit="10" stroke-width="8"/>
  <rect x="822" y="536" width="93.4" height="37" transform="translate(1423.2 -314.2) rotate(90)" fill="#6102fa"/>
  <rect x="1444" y="647" width="93.4" height="37" transform="translate(2156.2 -825.2) rotate(90)" fill="#6102fa"/>
  <rect x="1222" y="297" width="93.4" height="37" transform="translate(1584.2 -953.2) rotate(90)" fill="#6102fa"/>
  <rect x="572" y="231" width="93.4" height="37" transform="translate(868.2 -369.2) rotate(90)" fill="#6102fa"/>
  <rect x="146" y="609" width="93.4" height="37" transform="translate(820.2 434.8) rotate(90)" fill="#6102fa"/>
  <rect x="446" y="954" width="93.4" height="37" transform="translate(1465.2 479.8) rotate(90)" fill="#6102fa"/>
</svg>
