<svg id="Layer_1" data-name="Layer 1" xmlns="http://www.w3.org/2000/svg" width="150" height="150" viewBox="0 0 150 150">
  <title>social-behance</title>
  <g>
    <path d="M63.29,69.85a19.88,19.88,0,0,0,6.24-4.58c2.53-3,3.77-6.95,3.77-11.87a20.29,20.29,0,0,0-3.74-12.3q-6.24-8.39-21.18-8.6H8.9v80.59H45.71A57.46,57.46,0,0,0,57.26,112,22.78,22.78,0,0,0,66.49,108a22.35,22.35,0,0,0,5.78-6.34,23.26,23.26,0,0,0,3.64-12.85A21.1,21.1,0,0,0,72.73,77,18.41,18.41,0,0,0,63.29,69.85ZM25.19,46.5H43a31.18,31.18,0,0,1,9.66,1.26C55.55,49,57,51.44,57,55.21c0,3.38-1.12,5.74-3.33,7.07a16.64,16.64,0,0,1-8.64,2H25.19ZM53.31,97.69A19.51,19.51,0,0,1,45,99.11H25.19V77.62H45.3A21.06,21.06,0,0,1,53.48,79q5.21,2.36,5.2,8.66C58.68,92.58,56.89,95.92,53.31,97.69Z" fill="#3d00b2"/>
    <rect x="93.38" y="36.26" width="35.01" height="10.03" fill="#3d00b2"/>
    <path d="M140.56,75.85a28.75,28.75,0,0,0-4.83-12.32,24.24,24.24,0,0,0-10.43-8.82,34.59,34.59,0,0,0-14.21-2.79c-8.85,0-16,2.77-21.6,8.26S81.17,73.62,81.17,84q0,16.51,9.23,23.85a33.12,33.12,0,0,0,21.28,7.33q14.61,0,22.73-8.68c3.46-3.65,5.42-7.25,5.85-10.78H124.13a12.87,12.87,0,0,1-3.26,4.1,13.47,13.47,0,0,1-8.76,2.73,16.13,16.13,0,0,1-8.71-2.25c-4-2.39-6.07-6.59-6.33-12.57h44A76.58,76.58,0,0,0,140.56,75.85ZM97.46,77.4a16.21,16.21,0,0,1,4.22-9.23c2.23-2.26,5.39-3.4,9.43-3.41A14.05,14.05,0,0,1,120.49,68c2.5,2.15,3.91,5.29,4.2,9.43Z" fill="#3d00b2"/>
  </g>
</svg>
