<svg id="Layer_1" data-name="Layer 1" xmlns="http://www.w3.org/2000/svg" width="150" height="150" viewBox="0 0 150 150">
  <title>social-insta</title>
  <g>
    <path d="M76.11,11.76c7.12,0,14.24-.08,21.37,0,5.49.09,11,.33,16.34,1.85,13.42,3.8,21.46,12.64,24.48,26.15,1.26,5.66,1.33,11.44,1.36,17.2q.09,18.25,0,36.52c0,5.72-.09,11.47-1.33,17.1q-4.83,21.93-26.78,26.88c-5.49,1.24-11.11,1.32-16.71,1.35q-18.74.1-37.49,0c-5.82,0-11.66-.13-17.37-1.5-14.17-3.41-22.81-12.29-26.06-26.46a61,61,0,0,1-1.29-13.4q-.12-22.2,0-44.39a56.75,56.75,0,0,1,2-16.13c3.92-13,12.68-20.84,25.85-23.84a68.54,68.54,0,0,1,14.28-1.33C61.86,11.69,69,11.76,76.11,11.76Zm-52,63.49c0,7.32-.11,14.64,0,22a67.33,67.33,0,0,0,1,10.9c1.73,9.28,7.18,15.34,16.39,17.84a50.76,50.76,0,0,0,13,1.38c14.41.07,28.81.09,43.22,0a65.36,65.36,0,0,0,11-1c9.36-1.69,15.51-7.11,18-16.41a51,51,0,0,0,1.39-13.19q.12-21.45,0-42.92a66.56,66.56,0,0,0-1-11.1c-1.66-9.32-7-15.48-16.29-18a48.67,48.67,0,0,0-12.6-1.4c-12.24-.12-24.47-.22-36.71-.17-6.08,0-12.18-.06-18.19,1.12-9.13,1.79-15.22,7-17.8,16.08a49.48,49.48,0,0,0-1.46,13C24,60.62,24.08,67.94,24.08,75.25Z" fill="#3d00b2"/>
    <path d="M43.42,75.31A32.69,32.69,0,1,1,76,108,32.65,32.65,0,0,1,43.42,75.31Zm11.45,0A21.23,21.23,0,1,0,76.06,54.06,21.19,21.19,0,0,0,54.87,75.34Z" fill="#3d00b2"/>
    <path d="M117.7,41.46a7.67,7.67,0,1,1-7.48-7.75A7.71,7.71,0,0,1,117.7,41.46Z" fill="#3d00b2"/>
  </g>
</svg>
