<svg id="Layer_1" data-name="Layer 1" xmlns="http://www.w3.org/2000/svg" width="150" height="150" viewBox="0 0 150 150">
  <title>social-github</title>
  <path d="M132.78,42.64a66.5,66.5,0,0,0-24.32-24.32,65.32,65.32,0,0,0-33.54-9,65.27,65.27,0,0,0-33.54,9A66.43,66.43,0,0,0,17.06,42.64a65.27,65.27,0,0,0-9,33.54,64.92,64.92,0,0,0,12.74,39.28A65.44,65.44,0,0,0,53.77,139.6a3.88,3.88,0,0,0,3.48-.6,3.4,3.4,0,0,0,1.14-2.61c0-.18,0-1.74,0-4.7s0-5.54,0-7.74l-2,.34a24.86,24.86,0,0,1-4.83.31,36.93,36.93,0,0,1-6-.61,13.61,13.61,0,0,1-5.83-2.61A11.06,11.06,0,0,1,35.76,116l-.87-2a21.37,21.37,0,0,0-2.74-4.44,10.54,10.54,0,0,0-3.78-3.31l-.61-.43a6.18,6.18,0,0,1-1.13-1,4.58,4.58,0,0,1-.78-1.21c-.18-.41,0-.74.43-1a5.63,5.63,0,0,1,2.52-.39l1.74.26a12.87,12.87,0,0,1,4.31,2.09,14,14,0,0,1,4.22,4.53,15.24,15.24,0,0,0,4.83,5.43,10.2,10.2,0,0,0,5.7,1.87,24.75,24.75,0,0,0,5-.43,17.29,17.29,0,0,0,3.91-1.31q.78-5.82,4.26-9a60.72,60.72,0,0,1-8.91-1.56,35.52,35.52,0,0,1-8.18-3.4,23.34,23.34,0,0,1-7-5.83,27.92,27.92,0,0,1-4.56-9.13,43.5,43.5,0,0,1-1.79-13.06,25.34,25.34,0,0,1,6.88-17.92q-3.22-7.92.61-17.75,2.52-.78,7.48,1.18a50.64,50.64,0,0,1,7.26,3.35c1.54.92,2.77,1.71,3.7,2.35a62.6,62.6,0,0,1,33.41,0l3.31-2.09a47,47,0,0,1,8-3.83q4.62-1.74,7-1,3.92,9.84.7,17.75a25.4,25.4,0,0,1,6.87,17.93,43.81,43.81,0,0,1-1.78,13.09,27,27,0,0,1-4.61,9.14,24.34,24.34,0,0,1-7,5.78,35.52,35.52,0,0,1-8.18,3.4A59.34,59.34,0,0,1,87,105.67q4.53,3.92,4.53,12.36v18.35A3.43,3.43,0,0,0,92.63,139c.72.7,1.87.9,3.43.61A65.42,65.42,0,0,0,129,115.46a65,65,0,0,0,12.74-39.29A65.36,65.36,0,0,0,132.78,42.64Z" fill="#3d00b2"/>
</svg>
